<!-- Generated by IcoMoon.io -->
<svg version="1.1" xmlns="http://www.w3.org/2000/svg" width="18" height="32" viewBox="0 0 18 32">
<title>woodwork</title>
<path d="M18.172 30.209h-18.172v-30.209h18.172zM0.632 29.578h16.909v-28.946h-16.909z"></path>
<path d="M0.153 29.979c-0.024-0.158-0.551-4.034 2.33-10.895 2.013-4.792 4.771-6.696 7.438-8.537 1.118-0.774 2.274-1.571 3.338-2.57 3.158-2.965 3.022-7.606 3.020-7.653l0.632-0.024c0.008 0.201 0.158 4.97-3.219 8.136-1.105 1.033-2.275 1.844-3.412 2.63-2.593 1.79-5.274 3.641-7.214 8.263-2.815 6.699-2.294 10.52-2.288 10.565z"></path>
<path d="M0.335 10.841l-0.036-0.632c2.312-0.201 4.445-0.744 6.425-1.579l-0.139 0.052c4.105-1.759 6.227-4.579 6.29-8.368l0.632 0.011c-0.068 4.017-2.379 7.105-6.688 8.951-1.899 0.811-4.101 1.368-6.405 1.56l-0.078 0.005z"></path>
<path d="M18.172 29.933h-0.632v-14.663c-1.288-1.153-2.654-1.737-4.064-1.737-4.797 0-8.967 6.892-9.917 16.389l-0.632-0.063c0.474-4.683 1.754-8.957 3.619-12.035 1.925-3.174 4.385-4.923 6.927-4.923 1.611 0 3.158 0.671 4.595 1.996l0.101 0.095z"></path>
<path d="M18.172 30.209h-11.34l0.036-0.347c0.614-6.046 3.218-10.263 6.33-10.263 1.923 0 3.726 1.664 4.95 4.563l0.024 0.058zM7.535 29.578h10.006v-5.239c-1.116-2.618-2.697-4.118-4.342-4.118-2.675 0-5.030 3.913-5.664 9.357z"></path>
<path d="M15.833 30.209h-5.27l0.032-0.346c0.249-2.716 1.082-5.888 2.604-5.888s2.354 3.172 2.604 5.888zM11.255 29.578h3.881c-0.346-3.232-1.244-4.97-1.941-4.97s-1.595 1.735-1.937 4.97z"></path>
<path d="M18.172 31.998h-18.172v-2.421h18.172zM0.632 31.367h16.909v-1.157h-16.909z"></path>
<path d="M2.929 29.891h0.632v1.794h-0.632v-1.794z"></path>
<path d="M6.865 29.891h0.632v1.688h-0.632v-1.688z"></path>
<path d="M10.593 29.891h0.632v1.688h-0.632v-1.688z"></path>
<path d="M15.172 29.891h0.632v1.688h-0.632v-1.688z"></path>
</svg>
